<?xml version="1.0" encoding="utf-8"?>
<!-- Generator: Adobe Illustrator 25.2.1, SVG Export Plug-In . SVG Version: 6.00 Build 0)  -->
<svg version="1.1" id="notice-alert.svg" xmlns="http://www.w3.org/2000/svg" xmlns:xlink="http://www.w3.org/1999/xlink" x="0px"
	 y="0px" viewBox="0 0 45 40" style="enable-background:new 0 0 45 40;" xml:space="preserve">
<style type="text/css">
	.st0 {
		fill-rule:evenodd;
		clip-rule:evenodd;
		fill:#ffc833;
	}
	.st1{fill-rule:evenodd;clip-rule:evenodd;fill:#FFFFFF;}
	
	@supports (color: color(display-p3 1 1 1 / 1)) {
		.st0 {
			fill: color(display-p3 1 0.784 0.2);
		}
	}
</style>
<path id="a" class="st0" d="M43.3,40H1.7c-0.6,0-1.1-0.3-1.4-0.8C0,38.6,0,38,0.3,37.5L21.1,0.8c0.5-0.8,1.5-1,2.3-0.5
	c0.2,0.1,0.4,0.3,0.5,0.5l20.8,36.7c0.3,0.5,0.3,1.2,0,1.7C44.4,39.7,43.9,40,43.3,40z"/>
<path class="st1" d="M23,11.5c1.9,0,3.4,1.5,3.4,3.4c0,0,0,0,0,0l-1.3,8.5c-0.4,2-0.7,3.5-2.1,3.5c-1.3,0-1.7-1.5-2-3.5l-1.4-8.5
	C19.6,13,21.1,11.5,23,11.5C23,11.5,23,11.5,23,11.5z M23,29c2.1,0,3.9,1.7,3.9,3.8c0,2.1-1.7,3.9-3.8,3.9c-2.1,0-3.9-1.7-3.9-3.8
	c0,0,0,0,0-0.1C19.2,30.7,20.9,29,23,29L23,29z"/>
</svg>
