<svg height="41" viewBox="0 0 46 41" width="46" xmlns="http://www.w3.org/2000/svg"><path d="m450.3 331h-42.634a1.671 1.671 0 0 1 -1.453-.857 1.737 1.737 0 0 1 0-1.71l21.315-37.641a1.727 1.727 0 0 1 2.907 0l21.315 37.641a1.737 1.737 0 0 1 0 1.71 1.67 1.67 0 0 1 -1.45.857zm-20.77-29.019a3.409 3.409 0 0 1 3.4 3.42l-1.284 8.532c-.373 1.966-.744 3.461-2.113 3.461-1.3 0-1.657-1.53-2.016-3.461l-1.382-8.532a3.408 3.408 0 0 1 3.392-3.425zm0 17.476a3.866 3.866 0 1 1 -3.8 3.865 3.833 3.833 0 0 1 3.796-3.87z" fill="#312f27" fill-rule="evenodd" transform="translate(-406 -290)"/></svg>