<svg height="43" viewBox="0 0 43 43" width="43" xmlns="http://www.w3.org/2000/svg"><path d="m653 289h27a8 8 0 0 1 8 8v27a8 8 0 0 1 -8 8h-27a8 8 0 0 1 -8-8v-27a8 8 0 0 1 8-8zm17.273 27.629a12.431 12.431 0 0 1 -3.832.641 12.175 12.175 0 0 1 -3.726-.641c-.037-2.878-4.723-7.381-4.723-12.053a8.5 8.5 0 1 1 17 0c.008 4.855-4.692 9.08-4.719 12.053zm-7.52 1.851a11.892 11.892 0 0 0 3.691.715 12.316 12.316 0 0 0 3.8-.716 8.544 8.544 0 0 1 -.327 5.623 3.9 3.9 0 0 1 -3.425 1.9c-1.219 0-3.108-.618-3.515-1.893a13.1 13.1 0 0 1 -.224-5.629z" fill="#312f27" fill-rule="evenodd" transform="translate(-645 -289)"/></svg>